# xmcd
#
# Track frame offsets:
#	150
#	3035
#	29262
#	44880
#
# Disc length: 920 seconds
#
# Revision: 1
# Processed by: cddbd v1.5.1PL0 Copyright (c) Steve Scherf et al.
# Submitted via: audiograbber 1.83.01
#
DISCID=28039604
DTITLE=Pcycho le Cemu - a trip the Arcadia「擦り込まれた殉心」
DYEAR=2001
DGENRE=Indie
TTITLE0=〜Mother Garden〜
TTITLE1=MEGATRON
TTITLE2=TRAP ZONE
TTITLE3=インドラの矢-
EXTD=
EXTT0=
EXTT1=
EXTT2=
EXTT3=
PLAYORDER=
